# xmcd
#
# Track frame offsets: 
#        150
#        17711
#        34669
#        52164
#        66335
#        83452
#        93958
#        113012
#        129842
#        142613
#        162191
#        179365
#        203942
#        222691
#        241929
#        259677
#        269981
#
# Disc length: 3842 seconds
#
# Revision: 1
# Processed by: cddbd v1.5.2PL0 Copyright (c) Steve Scherf et al.
# Submitted via: ExactAudioCopyFreeDBPlugin 1.0
#
DISCID=ef0f0011
DTITLE=Diverse Country-Musiker - Country Music Messe 2007 [CD2)
DYEAR=2007
DGENRE=Country
TTITLE0=Indijana and The Jones - Long Time Gone
TTITLE1=Mark Merritt - Cowboy
TTITLE2=Lucky Sale - Höre auf Dein Herz
TTITLE3=Hermann Lammers Meyer - The Good Old Days
TTITLE4=SongDogs - Travelin' Light
TTITLE5=Germany Playboys - Copenhagen
TTITLE6=Westend - One Night At A Time
TTITLE7=Dale Williams - Somewhere Between Tequila And Mexico
TTITLE8=Change of Key - She Can Hardly Wait
TTITLE9=DogGone - Berlin, You' ve Gone Country
TTITLE10=Katie Grant - Listen To Your Heart
TTITLE11=Steve Haggerty and The Wanted - Ghostriders
TTITLE12=Brooks Forever - The Dance
TTITLE13=Gay Frazier - You Wandered In
TTITLE14=Chris Webb and Diamond Music Group - I Must Be Home
TTITLE15=The Daltons - Saddle Up
TTITLE16=Ulli Möhring - Memories
EXTD=YEAR: 2007
EXTT0=
EXTT1=
EXTT2=
EXTT3=
EXTT4=
EXTT5=
EXTT6=
EXTT7=
EXTT8=
EXTT9=
EXTT10=
EXTT11=
EXTT12=
EXTT13=
EXTT14=
EXTT15=
EXTT16=
PLAYORDER=
